<?xml version="1.0" encoding="utf-8"?>
<!-- Generator: Adobe Illustrator 23.0.1, SVG Export Plug-In . SVG Version: 6.00 Build 0)  -->
<svg version="1.1" id="Layer_1" xmlns="http://www.w3.org/2000/svg" xmlns:xlink="http://www.w3.org/1999/xlink" x="0px" y="0px"
	 viewBox="0 0 1000 1000" style="enable-background:new 0 0 1000 1000;" xml:space="preserve">
<path d="M126.712,552.95H96.364L50,395.222h27.723l34.413,137.405l34.651-137.405h26.289l34.89,137.648l34.651-137.648h26.284
	L222.78,552.95h-30.11l-25.093-94.639l-7.886-36.324h-0.238l-7.886,36.324L126.712,552.95z"/>
<path d="M416.584,530.954v21.996H299.011V395.222h114.227v21.986h-88.658v45.406h69.308v21.505h-69.308v46.836H416.584z"/>
<path d="M510.255,489.856h-33.927v63.094h-25.341V395.222h64.285c17.046,0,30.514,4.181,40.393,12.544
	c9.87,8.363,14.81,19.954,14.81,34.773c0,11.314-2.907,20.751-8.722,28.316c-5.815,7.57-14.061,12.947-24.728,16.132l42.776,65.963
	h-29.396L510.255,489.856z M476.328,468.584h36.795c10.356,0,18.087-2.11,23.182-6.33c5.095-4.22,7.653-10.716,7.653-19.477
	s-2.557-15.252-7.653-19.477c-5.095-4.22-12.826-6.33-23.182-6.33h-36.795V468.584z"/>
<path d="M637.007,552.95h-25.574V395.222h25.574V552.95z"/>
<path d="M774.932,400.716c10.268,5.261,18.913,13.307,25.924,24.14l-19.36,17.445c-4.454-9.559-10.035-16.492-16.725-20.795
	c-6.69-4.298-15.617-6.452-26.76-6.452c-10.998,0-19.526,2.193-25.574,6.573c-6.058,4.385-9.082,10.001-9.082,16.847
	c0,6.374,2.946,11.435,8.839,15.174c5.893,3.749,16.414,6.972,31.545,9.68c14.178,2.553,25.457,5.776,33.82,9.68
	s14.46,8.761,18.281,14.576s5.737,13.03,5.737,21.626c0,9.238-2.625,17.367-7.886,24.378c-5.261,7.011-12.631,12.388-22.103,16.132
	c-9.481,3.734-20.44,5.62-32.867,5.62c-32.021,0-54.639-10.677-67.864-32.031l17.921-17.921c5.095,9.559,11.669,16.57,19.71,21.033
	c8.051,4.454,18.048,6.69,29.998,6.69c11.309,0,20.187-1.955,26.644-5.854c6.457-3.909,9.675-9.442,9.675-16.609
	c0-5.737-2.907-10.366-8.722-13.866c-5.815-3.501-15.967-6.612-30.465-9.32c-14.498-2.703-26.051-6.053-34.656-10.035
	c-8.596-3.982-14.858-8.922-18.758-14.814c-3.909-5.893-5.854-13.064-5.854-21.509c0-8.922,2.47-17.046,7.41-24.378
	c4.94-7.322,12.067-13.142,21.383-17.445c9.325-4.298,20.197-6.452,32.624-6.452C752.265,392.83,764.653,395.46,774.932,400.716z"/>
<path d="M955,530.954v21.996H837.418V395.222h114.237v21.986h-88.663v45.406h69.303v21.505h-69.303v46.836H955z"/>
<polyline points="599.486,388.516 624.22,339.048 648.955,388.516 "/>
</svg>
