<svg id="Layer_1" data-name="Layer 1" xmlns="http://www.w3.org/2000/svg" viewBox="0 0 905 216.29"><defs><style>.cls-1{fill:#fff;}</style></defs><title>werise_logo_white</title><path class="cls-1" d="M126.71,228.7H96.36L50,71H77.72l34.42,137.41L146.79,71h26.29L208,208.62,242.62,71H268.9L222.78,228.7H192.67l-25.09-94.64-7.89-36.32h-.24l-7.88,36.32Z" transform="translate(-50 -14.8)"/><path class="cls-1" d="M416.58,206.7v22H299V71H413.24V93H324.58v45.4h69.31v21.51H324.58V206.7Z" transform="translate(-50 -14.8)"/><path class="cls-1" d="M510.26,165.6H476.33v63.1H451V71h64.28q25.58,0,40.39,12.54t14.81,34.78q0,17-8.72,28.31T537,162.74l42.78,66H550.4Zm-33.93-21.27h36.79q15.54,0,23.18-6.33T544,118.53q0-13.15-7.66-19.48t-23.18-6.33H476.33Z" transform="translate(-50 -14.8)"/><path class="cls-1" d="M637,228.7H611.43V71H637Z" transform="translate(-50 -14.8)"/><path class="cls-1" d="M774.93,76.46q15.41,7.91,25.93,24.14L781.5,118.05q-6.69-14.34-16.73-20.8T738,90.8q-16.5,0-25.57,6.58t-9.08,16.84q0,9.57,8.83,15.18t31.55,9.68q21.27,3.82,33.82,9.68t18.28,14.57q5.73,8.73,5.74,21.63a39.52,39.52,0,0,1-7.89,24.38q-7.89,10.51-22.1,16.13t-32.87,5.62q-48,0-67.86-32l17.92-17.92q7.63,14.34,19.71,21t30,6.69q17,0,26.64-5.85t9.68-16.61q0-8.61-8.73-13.87t-30.46-9.32q-21.75-4.05-34.66-10T682.2,138.36q-5.85-8.84-5.85-21.51a42.71,42.71,0,0,1,7.41-24.38q7.41-11,21.38-17.44t32.63-6.45Q759.52,68.58,774.93,76.46Z" transform="translate(-50 -14.8)"/><path class="cls-1" d="M955,206.7v22H837.42V71H951.66V93H863v45.4h69.3v21.51H863V206.7Z" transform="translate(-50 -14.8)"/><polyline class="cls-1" points="549.49 49.47 574.22 0 598.96 49.47"/></svg>